{"glyphs":{"\r":{"ha":361,"x_min":0,"x_max":0,"o":""}," ":{"ha":361,"x_min":0,"x_max":0,"o":""},"A":{"ha":1058,"x_min":14,"x_max":1044,"o":"m 358 -1 l 14 -1 l 14 7 q 129 48 76 7 q 214 160 182 89 l 521 1043 l 540 1043 l 889 79 q 938 26 906 46 q 1006 7 969 7 l 1044 7 l 1044 -1 l 614 -1 l 614 7 l 728 7 l 621 325 l 288 325 l 231 160 q 228 106 222 133 q 249 57 233 79 q 290 21 265 35 q 343 7 314 7 l 358 7 l 358 -1 m 292 338 l 617 338 l 456 813 l 292 338 z "},"B":{"ha":967,"x_min":14,"x_max":943,"o":"m 646 547 q 815 491 749 536 q 912 385 881 446 q 938 256 943 324 q 893 131 933 189 q 776 36 853 74 q 588 -1 700 -1 l 14 -1 l 14 7 l 46 7 q 104 31 81 7 q 128 89 128 56 l 128 892 q 104 950 128 926 q 46 974 81 974 l 14 974 l 14 982 l 557 982 q 713 954 649 982 q 812 883 776 926 q 854 788 847 840 q 841 687 861 735 q 772 601 821 639 q 646 547 722 563 m 325 551 l 482 551 q 583 586 543 554 q 644 665 624 618 q 663 765 664 711 q 641 864 663 818 q 577 940 619 910 q 472 969 535 969 l 325 969 l 325 551 m 503 11 q 637 49 583 11 q 717 145 690 88 q 745 271 744 203 q 720 397 746 339 q 642 495 694 456 q 513 538 590 535 l 325 538 l 325 11 l 503 11 z "},"C":{"ha":919,"x_min":28,"x_max":892,"o":"m 521 -14 q 305 29 397 -14 q 151 143 213 72 q 59 305 90 214 q 28 490 28 396 q 59 674 28 583 q 151 836 90 765 q 305 950 213 907 q 521 993 397 993 q 645 983 593 993 q 732 959 697 972 q 788 935 767 946 q 819 922 808 924 q 833 934 831 921 q 836 982 836 947 l 856 982 l 892 674 l 874 674 q 819 828 858 760 q 778 885 803 857 q 722 935 754 913 q 647 970 689 957 q 550 983 604 983 q 410 941 469 983 q 310 829 350 899 q 249 671 269 760 q 229 490 229 582 q 249 308 229 397 q 310 150 269 219 q 410 38 350 81 q 550 -4 469 -4 q 647 10 604 -4 q 722 47 689 24 q 778 99 754 69 q 819 160 803 129 q 874 325 858 232 l 892 325 l 856 -1 l 836 -1 q 833 52 836 38 q 819 65 831 67 q 788 51 808 64 q 732 24 767 39 q 645 -2 697 10 q 521 -14 593 -14 z "},"D":{"ha":1025,"x_min":14,"x_max":997,"o":"m 451 982 q 690 940 588 982 q 861 828 793 897 q 963 671 929 760 q 997 490 997 582 q 963 310 997 399 q 861 152 929 221 q 690 41 793 83 q 451 -1 588 -1 l 14 -1 l 14 7 l 47 7 q 104 31 81 7 q 128 89 128 56 l 128 892 q 104 950 128 926 q 47 974 81 974 l 14 974 l 14 982 l 451 982 m 364 11 q 553 52 472 11 q 689 160 635 93 q 770 314 743 228 q 797 490 797 400 q 770 667 797 581 q 689 820 743 753 q 553 928 635 888 q 364 969 472 969 l 325 969 l 325 11 l 364 11 z "},"E":{"ha":849,"x_min":14,"x_max":821,"o":"m 325 -1 l 14 -1 l 14 7 l 47 7 q 105 31 81 7 q 129 89 129 56 l 129 892 q 105 950 129 926 q 47 974 81 974 l 14 974 l 14 982 l 767 982 l 792 724 l 783 724 l 776 747 q 736 838 764 797 q 670 908 708 879 q 585 954 632 938 q 488 971 539 971 l 325 971 l 325 558 l 572 558 q 645 583 613 558 q 689 647 678 607 l 689 649 l 697 649 l 697 457 l 689 457 l 689 458 q 645 523 678 499 q 572 547 613 547 l 325 547 l 325 10 l 517 10 q 615 26 568 10 q 699 72 661 43 q 765 142 738 101 q 806 233 793 183 l 813 258 l 821 258 l 796 -1 l 325 -1 z "},"F":{"ha":824,"x_min":14,"x_max":796,"o":"m 440 -1 l 14 -1 l 14 7 l 47 7 q 105 31 81 7 q 129 89 129 56 l 129 892 q 105 950 129 926 q 47 974 81 974 l 14 974 l 14 982 l 771 982 l 796 724 l 788 724 l 781 747 q 740 838 768 797 q 674 908 713 879 q 590 954 636 938 q 492 971 543 971 l 396 971 q 346 945 367 967 q 325 892 325 924 l 325 558 l 576 558 q 650 583 618 558 q 693 647 682 607 l 693 649 l 703 649 l 703 547 l 703 457 l 693 457 l 693 458 q 650 523 682 499 q 576 547 618 547 l 325 547 l 325 89 q 349 31 325 56 q 407 7 374 7 l 440 7 l 440 -1 z "},"G":{"ha":1060,"x_min":28,"x_max":1046,"o":"m 504 -14 q 295 29 385 -14 q 146 143 206 72 q 57 305 86 214 q 29 490 28 396 q 62 674 31 583 q 155 836 93 765 q 309 950 217 907 q 525 993 401 993 q 649 983 597 993 q 736 959 701 972 q 792 935 771 946 q 824 922 813 924 q 838 934 835 921 q 840 982 840 947 l 860 982 l 896 674 l 878 674 q 824 828 863 760 q 783 885 807 857 q 726 935 758 913 q 651 970 693 957 q 554 983 608 983 q 416 941 475 983 q 318 829 357 899 q 260 671 279 760 q 242 490 242 582 q 260 310 242 399 q 313 152 278 221 q 399 41 347 83 q 517 -1 450 -1 q 622 24 581 -1 q 686 85 663 49 q 721 165 710 122 q 735 246 732 208 l 735 504 q 711 563 735 539 q 653 586 688 586 l 410 586 l 410 594 l 1046 594 l 1046 586 l 1014 586 q 956 563 979 586 q 932 504 932 539 l 932 89 q 956 31 932 56 q 1014 7 979 7 l 1046 7 l 1046 -1 l 735 -1 l 735 167 q 713 101 728 133 q 670 44 697 69 q 603 2 643 18 q 504 -14 563 -14 z "},"H":{"ha":1053,"x_min":14,"x_max":1039,"o":"m 440 -1 l 14 -1 l 14 7 l 47 7 q 104 31 81 7 q 128 89 128 56 l 128 892 q 104 950 128 926 q 47 974 81 974 l 14 974 l 14 982 l 440 982 l 440 974 l 407 974 q 349 950 374 974 q 325 892 325 926 l 325 558 l 728 558 l 728 892 q 703 950 728 926 q 646 974 679 974 l 613 974 l 613 982 l 1039 982 l 1039 974 l 1006 974 q 948 950 972 974 q 924 892 924 926 l 924 89 q 948 31 924 56 q 1006 7 972 7 l 1039 7 l 1039 -1 l 613 -1 l 613 7 l 646 7 q 703 31 679 7 q 728 89 728 56 l 728 547 l 325 547 l 325 89 q 349 31 325 56 q 407 7 374 7 l 440 7 l 440 -1 z "},"I":{"ha":453,"x_min":14,"x_max":439,"o":"m 439 -1 l 14 -1 l 14 7 l 46 7 q 104 31 81 7 q 128 89 128 56 l 128 892 q 104 950 128 926 q 46 974 81 974 l 14 974 l 14 982 l 439 982 l 439 974 l 407 974 q 349 950 372 974 q 325 892 325 926 l 325 89 q 349 31 325 56 q 407 7 372 7 l 439 7 l 439 -1 z "},"J":{"ha":447,"x_min":-26,"x_max":446,"o":"m 332 89 q 300 -105 332 -26 q 217 -232 268 -183 q 101 -301 165 -281 q -26 -322 38 -322 l -26 -311 q 49 -293 18 -311 q 99 -229 81 -275 q 126 -106 118 -183 q 135 89 135 -29 l 135 892 q 111 950 135 926 q 54 974 88 974 l 21 974 l 21 982 l 446 982 l 446 974 l 414 974 q 356 950 379 974 q 332 892 332 926 l 332 89 l 332 89 z "},"K":{"ha":1064,"x_min":14,"x_max":1175,"o":"m 1175 -111 q 1005 -102 1076 -111 q 878 -71 933 -93 q 778 -13 822 -49 q 692 76 735 22 l 385 542 l 607 803 q 631 831 617 814 q 659 867 646 849 q 681 906 672 886 q 688 940 689 925 q 672 964 686 954 q 624 974 657 974 l 624 982 l 896 982 l 896 974 l 872 974 q 775 951 821 974 q 693 886 729 928 l 515 681 q 753 331 653 479 q 929 87 853 183 q 1064 -56 1006 -10 q 1175 -103 1122 -103 l 1175 -111 m 325 89 q 349 31 325 56 q 406 7 372 7 l 439 7 l 439 -1 l 14 -1 l 14 7 l 46 7 q 103 31 79 7 q 128 89 128 56 l 128 892 q 103 950 128 926 q 46 974 79 974 l 14 974 l 14 982 l 439 982 l 439 974 l 406 974 q 349 950 372 974 q 325 892 325 926 l 325 89 z "},"L":{"ha":778,"x_min":14,"x_max":750,"o":"m 725 -1 l 14 -1 l 14 7 l 47 7 q 104 31 81 7 q 128 89 128 56 l 128 892 q 104 950 128 926 q 47 974 81 974 l 14 974 l 14 982 l 439 982 l 439 974 l 407 974 q 349 950 374 974 q 325 892 325 926 l 325 10 l 444 10 q 542 26 496 10 q 628 72 589 43 q 694 142 667 101 q 735 233 722 183 l 740 258 l 750 258 l 725 -1 z "},"M":{"ha":1283,"x_min":14,"x_max":1269,"o":"m 332 -1 l 14 -1 l 14 7 l 39 7 q 128 44 92 7 q 165 133 165 81 l 165 847 q 128 937 165 900 q 39 974 92 974 l 14 974 l 14 982 l 306 982 l 663 185 l 985 982 l 1269 982 l 1269 974 l 1238 974 q 1179 950 1203 974 q 1156 892 1156 926 l 1156 89 q 1179 31 1156 56 q 1238 7 1203 7 l 1269 7 l 1269 -1 l 844 -1 l 844 7 l 878 7 q 935 31 911 7 q 958 89 958 56 l 960 874 l 606 -1 l 574 -1 l 181 833 l 181 133 q 217 44 181 81 q 307 7 254 7 l 332 7 l 332 -1 z "},"N":{"ha":1000,"x_min":14,"x_max":986,"o":"m 332 -1 l 14 -1 l 14 7 l 39 7 q 128 44 92 7 q 165 133 165 81 l 165 847 q 128 937 165 900 q 39 974 92 974 l 14 974 l 14 982 l 288 982 l 813 276 l 813 847 q 803 897 813 874 q 776 937 793 919 q 735 964 758 954 q 686 974 713 974 l 661 974 l 661 982 l 986 982 l 986 974 l 956 974 q 866 937 903 974 q 829 847 829 900 l 829 -29 l 813 -29 l 182 838 l 181 133 q 217 44 181 81 q 307 7 254 7 l 332 7 l 332 -1 z "},"O":{"ha":1006,"x_min":28,"x_max":978,"o":"m 503 -14 q 318 22 404 -14 q 167 124 232 58 q 65 283 103 190 q 28 490 28 376 q 65 696 28 603 q 167 855 103 789 q 318 957 232 921 q 503 993 404 993 q 688 957 601 993 q 838 855 774 921 q 940 696 903 789 q 978 490 978 603 q 940 283 978 376 q 838 124 903 190 q 688 22 774 58 q 503 -14 601 -14 m 503 983 q 402 948 449 983 q 320 847 356 913 q 265 691 285 782 q 244 490 244 600 q 265 288 244 379 q 320 132 285 197 q 402 31 356 67 q 503 -4 449 -4 q 603 31 557 -4 q 685 132 650 67 q 741 288 721 197 q 761 490 761 379 q 741 691 761 600 q 685 847 721 782 q 603 948 650 913 q 503 983 557 983 z "},"P":{"ha":882,"x_min":14,"x_max":854,"o":"m 439 -1 l 14 -1 l 14 7 l 46 7 q 104 31 81 7 q 128 89 128 56 l 128 892 q 104 950 128 926 q 46 974 81 974 l 14 974 l 14 982 l 501 982 q 697 941 619 982 q 815 839 775 900 q 853 706 854 778 q 814 572 853 633 q 697 470 775 511 q 501 429 618 429 l 325 429 l 325 89 q 349 31 325 56 q 406 7 372 7 l 439 7 l 439 -1 m 325 442 l 417 442 q 551 481 497 442 q 633 578 606 519 q 660 706 660 638 q 633 833 660 774 q 551 931 606 892 q 417 969 497 969 l 325 969 l 325 442 z "},"Q":{"ha":1011,"x_min":28,"x_max":1122,"o":"m 488 -14 q 308 26 392 -11 q 162 130 224 64 q 64 288 100 196 q 28 490 28 379 q 65 696 28 603 q 167 855 103 789 q 318 957 232 921 q 503 993 404 993 q 688 957 601 993 q 838 855 774 921 q 940 696 903 789 q 978 490 978 603 q 942 288 978 379 q 844 131 906 196 q 699 28 782 65 q 519 -12 615 -10 l 518 -14 l 444 -57 q 553 -62 499 -47 q 669 -100 608 -78 q 798 -143 729 -122 q 949 -164 867 -164 q 1036 -156 1004 -164 q 1086 -139 1068 -149 q 1114 -112 1106 -128 l 1122 -121 q 1078 -200 1107 -165 q 1012 -255 1053 -231 q 908 -279 971 -279 q 789 -256 849 -279 q 671 -204 729 -233 q 557 -149 613 -175 q 449 -115 501 -122 q 349 -130 397 -108 q 260 -218 301 -151 l 250 -201 q 303 -142 278 -167 q 351 -100 328 -118 l 351 -99 l 369 -87 q 374 -85 372 -86 q 379 -82 376 -83 l 488 -14 m 503 983 q 402 948 449 983 q 320 847 356 913 q 265 691 285 782 q 244 490 244 600 q 265 288 244 379 q 320 132 285 197 q 402 31 356 67 q 503 -4 449 -4 q 603 31 557 -4 q 685 132 650 67 q 741 288 721 197 q 761 490 761 379 q 741 691 761 600 q 685 847 721 782 q 603 948 650 913 q 503 983 557 983 z "},"R":{"ha":1006,"x_min":14,"x_max":992,"o":"m 440 -1 l 14 -1 l 14 7 l 47 7 q 104 31 81 7 q 128 89 128 56 l 128 892 q 104 950 128 926 q 47 974 81 974 l 14 974 l 14 982 l 503 982 q 680 950 607 982 q 795 867 753 918 q 849 755 838 817 q 843 634 861 693 q 776 526 825 575 q 649 451 728 476 l 775 200 q 874 56 825 104 q 992 7 922 7 l 992 -1 l 565 -1 l 561 7 l 676 7 l 463 429 l 325 429 l 325 89 q 349 31 325 56 q 407 7 374 7 l 440 7 l 440 -1 m 325 442 l 418 442 q 552 481 499 442 q 633 578 606 519 q 660 706 660 638 q 633 833 660 774 q 552 931 606 892 q 418 969 499 969 l 325 969 l 325 442 z "},"S":{"ha":817,"x_min":28,"x_max":789,"o":"m 61 -1 l 28 306 l 43 306 q 101 141 54 207 q 211 41 147 75 q 346 3 275 7 q 476 21 417 -1 q 576 90 536 43 q 615 208 615 138 q 574 321 615 276 q 469 399 532 365 q 334 460 407 432 q 199 526 261 489 q 94 618 136 564 q 53 756 53 672 q 90 876 53 829 q 182 948 128 922 q 297 983 236 974 q 407 993 358 993 q 544 976 492 993 q 627 948 597 960 q 668 939 657 936 q 679 982 679 942 l 697 982 l 729 674 l 714 674 q 662 835 703 772 q 565 930 621 897 q 449 967 510 963 q 338 957 389 972 q 253 909 286 942 q 219 833 219 876 q 244 751 219 785 q 308 690 268 717 q 400 641 349 663 q 504 597 451 619 q 608 547 557 574 q 700 485 660 521 q 765 401 740 450 q 789 286 789 353 q 768 172 789 219 q 713 90 747 124 q 637 36 679 57 q 551 4 594 15 q 467 -10 507 -7 q 400 -14 428 -14 q 283 -3 333 -14 q 197 20 233 7 q 138 45 161 33 q 102 58 115 57 q 83 47 89 60 q 78 -1 78 33 l 61 -1 z "},"T":{"ha":864,"x_min":28,"x_max":836,"o":"m 38 724 l 28 724 l 53 982 l 811 982 l 836 724 l 826 724 l 821 747 q 781 838 808 797 q 714 908 753 879 q 628 954 675 938 q 531 971 582 971 l 531 89 q 554 31 531 56 q 613 7 578 7 l 644 7 l 644 -1 l 219 -1 l 219 7 l 251 7 q 310 31 286 7 q 333 89 333 56 l 333 971 q 235 954 282 971 q 150 908 189 938 q 83 838 111 879 q 43 747 56 797 l 38 724 z "},"U":{"ha":1003,"x_min":14,"x_max":989,"o":"m 128 892 q 104 950 128 926 q 46 974 81 974 l 14 974 l 14 982 l 439 982 l 439 974 l 407 974 q 349 950 372 974 q 325 892 325 926 l 325 351 q 362 173 325 244 q 454 67 399 101 q 574 32 510 32 q 693 67 638 32 q 785 172 749 103 q 822 343 822 240 l 822 847 q 785 937 822 900 q 696 974 749 974 l 671 974 l 671 982 l 989 982 l 989 974 l 964 974 q 874 937 911 974 q 838 847 838 900 l 838 322 q 807 176 838 239 q 726 70 776 113 q 613 6 676 28 q 483 -16 549 -15 q 353 5 417 -17 q 239 70 289 26 q 158 179 189 114 q 128 333 128 244 l 128 892 l 128 892 z "},"V":{"ha":1124,"x_min":14,"x_max":1110,"o":"m 178 878 q 117 948 157 922 q 28 974 76 974 l 14 974 l 15 982 l 444 982 l 444 974 q 391 959 407 974 q 372 924 375 944 q 376 880 369 903 q 390 842 382 857 l 615 204 l 871 861 q 878 901 881 881 q 866 937 876 921 q 838 963 856 953 q 800 974 821 974 l 739 974 l 738 982 l 1110 982 l 1110 974 l 1076 974 q 961 940 1014 974 q 882 850 908 907 l 547 -33 l 525 -33 l 178 878 l 178 878 z "},"W":{"ha":1717,"x_min":14,"x_max":1703,"o":"m 174 871 q 113 946 154 918 q 21 974 71 974 l 14 974 l 14 982 l 443 982 l 443 974 q 385 964 404 974 q 360 941 367 954 q 356 914 354 928 q 363 890 358 900 l 636 224 l 824 804 l 796 871 q 735 946 776 918 q 643 974 693 974 l 636 974 l 636 982 l 708 982 l 1081 982 l 1081 974 q 1015 966 1039 974 q 982 947 992 958 q 974 921 972 935 q 982 896 975 907 l 1196 197 l 1471 864 q 1476 903 1479 883 q 1463 938 1474 922 q 1436 964 1453 954 q 1399 974 1419 974 l 1332 974 l 1331 982 l 1703 982 l 1703 974 l 1676 974 q 1556 938 1610 974 q 1478 840 1503 901 l 1119 -33 l 1093 -33 l 832 783 l 571 -33 l 544 -33 l 174 871 l 174 871 z "},"X":{"ha":1192,"x_min":14,"x_max":1178,"o":"m 339 -1 l 14 -1 l 14 7 l 82 7 q 162 26 124 7 q 225 79 200 46 l 517 475 l 201 904 q 141 955 178 936 q 64 974 104 974 l 31 974 l 31 982 l 461 982 l 461 974 q 405 968 424 974 q 382 952 386 963 q 386 926 378 942 q 411 889 394 910 l 615 610 l 824 893 q 836 956 858 939 q 731 974 814 974 l 731 982 l 1054 982 l 1054 974 l 988 974 q 907 955 944 974 q 844 901 869 936 l 622 600 l 1011 71 q 1066 24 1033 40 q 1136 7 1099 7 l 1178 7 l 1178 -1 l 746 -1 l 746 7 q 816 32 810 7 q 771 129 822 57 l 524 465 l 239 75 q 228 55 232 67 q 231 33 224 43 q 262 15 238 22 q 339 7 286 7 l 339 -1 z "},"Y":{"ha":1050,"x_min":14,"x_max":1036,"o":"m 182 904 q 123 955 158 936 q 47 974 88 974 l 14 974 l 14 982 l 446 982 l 446 974 q 388 968 407 974 q 365 952 369 963 q 367 926 360 942 q 390 889 375 910 l 604 515 l 810 893 q 818 956 842 939 q 711 974 794 974 l 711 982 l 1036 982 l 1036 974 l 968 974 q 890 955 926 974 q 829 901 853 936 l 611 504 l 611 89 q 635 31 611 56 q 693 7 660 7 l 726 7 l 726 -1 l 300 -1 l 300 7 l 333 7 q 391 31 367 7 q 415 89 415 56 l 415 503 l 182 904 l 182 904 z "},"Z":{"ha":836,"x_min":28,"x_max":808,"o":"m 783 -1 l 28 -1 l 28 10 l 583 971 l 361 971 q 263 954 310 971 q 178 908 217 938 q 111 838 139 879 q 71 747 83 797 l 65 724 l 56 724 l 81 982 l 783 982 l 783 974 l 226 10 l 503 10 q 601 26 554 10 q 686 72 647 43 q 753 142 725 101 q 793 233 781 183 l 800 258 l 808 258 l 783 -1 z "},"a":{"ha":778,"x_min":28,"x_max":764,"o":"m 460 178 q 393 61 435 104 q 303 1 351 18 q 206 -9 256 -17 q 117 28 157 -1 q 53 107 78 58 q 28 222 28 156 q 47 324 28 275 q 115 408 67 372 q 248 459 164 443 q 460 461 332 475 q 440 580 460 533 q 390 652 421 626 q 319 683 358 678 q 242 680 281 689 q 167 647 203 671 q 108 590 132 624 l 90 607 q 265 727 169 694 q 446 743 361 760 q 588 662 531 726 q 644 490 644 597 l 644 143 q 657 89 644 110 q 687 60 669 68 q 724 57 704 53 q 757 76 743 61 l 764 67 q 728 26 750 43 q 679 -1 708 11 q 607 -12 650 -12 q 502 40 544 -12 q 460 178 460 92 m 460 444 q 358 444 404 453 q 279 410 313 436 q 228 342 246 385 q 210 240 210 300 q 228 153 210 189 q 275 98 247 117 q 335 79 303 79 q 394 102 367 79 q 441 171 422 125 q 460 290 460 217 l 460 269 l 460 444 z "},"b":{"ha":908,"x_min":14,"x_max":881,"o":"m 318 1047 l 318 524 q 394 663 343 610 q 508 738 446 717 q 637 747 571 758 q 757 692 703 736 q 846 572 811 649 q 881 385 881 494 q 847 190 881 271 q 760 60 813 108 q 642 -4 707 13 q 514 -6 576 -21 q 399 56 451 10 q 318 179 346 101 l 318 167 q 276 34 318 81 q 171 -12 233 -12 q 99 -1 128 -12 q 50 26 69 11 q 14 67 28 43 l 21 76 q 53 57 35 61 q 90 60 72 53 q 121 89 108 68 q 133 143 133 110 l 133 490 l 133 892 q 110 949 133 925 q 51 974 86 974 l 19 974 l 19 982 l 318 1047 m 675 385 q 649 561 675 493 q 583 660 622 629 q 497 687 543 690 q 410 647 450 683 q 344 545 371 611 q 318 386 318 479 l 318 301 q 344 173 318 229 q 410 85 371 117 q 497 49 450 53 q 583 79 543 46 q 649 187 622 113 q 675 385 675 261 z "},"c":{"ha":739,"x_min":28,"x_max":711,"o":"m 404 751 q 532 735 482 751 q 610 707 582 718 q 647 699 638 696 q 653 742 657 701 l 667 742 l 692 508 l 679 508 q 628 622 661 572 q 553 701 600 665 q 438 738 507 738 q 340 710 382 738 q 268 637 297 682 q 224 535 239 592 q 208 422 208 479 q 239 253 208 321 q 317 145 269 185 q 422 90 364 106 q 534 79 479 75 q 633 103 589 83 q 700 153 678 122 l 711 146 q 642 65 685 101 q 544 10 604 35 q 397 -14 485 -14 q 237 19 306 -14 q 122 106 168 51 q 51 228 75 160 q 28 369 28 297 q 51 509 28 440 q 122 632 75 578 q 239 719 168 686 q 404 751 310 751 z "},"d":{"ha":908,"x_min":28,"x_max":894,"o":"m 894 78 q 858 38 881 54 q 810 10 839 22 q 738 -1 781 -1 q 633 45 675 -1 q 590 178 590 92 l 590 179 q 510 56 563 103 q 394 -6 457 10 q 267 -4 332 -21 q 149 60 201 13 q 62 190 96 108 q 28 385 28 271 q 63 572 28 494 q 151 692 97 649 q 272 747 206 736 q 400 738 338 758 q 514 663 463 717 q 590 524 565 610 l 590 719 l 589 892 q 565 949 589 925 q 508 974 542 974 l 475 974 l 475 982 l 775 1047 l 775 490 l 775 154 q 788 100 775 121 q 817 72 800 79 q 854 68 835 64 q 888 88 874 72 l 894 78 m 590 378 q 564 538 590 471 q 498 644 538 606 q 412 688 458 682 q 326 665 365 694 q 260 566 286 635 q 233 385 233 497 q 260 187 233 261 q 326 79 286 113 q 412 49 365 46 q 498 85 458 53 q 564 173 538 117 q 590 301 590 229 l 590 378 z "},"e":{"ha":749,"x_min":28,"x_max":721,"o":"m 403 751 q 504 739 460 751 q 581 706 549 726 q 638 658 614 685 q 676 606 661 632 q 721 460 713 540 l 221 460 q 245 297 221 367 q 310 179 269 226 q 401 108 350 132 q 507 81 453 83 q 613 96 561 78 q 707 153 665 114 l 718 146 q 669 90 701 118 q 592 39 636 63 q 494 1 547 15 q 385 -14 440 -14 q 233 19 299 -14 q 122 106 167 51 q 54 228 78 160 q 29 369 31 297 q 50 509 28 440 q 118 632 72 578 q 235 719 164 686 q 403 751 306 751 m 528 481 q 492 665 528 597 q 379 732 456 732 q 309 710 339 732 q 260 653 279 689 q 230 573 240 618 q 219 481 219 528 l 528 481 z "},"f":{"ha":547,"x_min":14,"x_max":533,"o":"m 46 8 q 104 32 81 8 q 128 89 128 56 l 128 724 l 14 724 l 14 736 l 128 736 l 128 825 q 149 940 128 894 q 203 1013 169 986 q 281 1047 238 1039 q 369 1051 324 1056 q 457 1031 414 1047 q 533 992 500 1015 l 528 982 q 450 1013 489 1003 q 381 1014 411 1024 q 331 972 350 1004 q 313 875 313 939 l 313 736 l 525 736 l 525 724 l 313 724 l 313 89 q 337 32 313 56 q 394 8 361 8 l 426 8 l 426 0 l 14 0 l 14 8 l 46 8 l 46 8 z "},"g":{"ha":793,"x_min":21,"x_max":790,"o":"m 790 -139 q 763 -251 790 -201 q 683 -337 735 -301 q 561 -394 632 -374 q 403 -417 490 -414 q 185 -385 272 -421 q 60 -299 99 -350 q 31 -190 21 -247 q 104 -90 42 -132 l 114 -90 q 63 -42 82 -71 q 44 32 44 -12 q 62 98 44 71 q 110 143 79 125 q 182 170 140 161 q 272 183 224 179 q 174 219 219 196 q 97 276 129 242 q 47 357 65 311 q 29 461 29 403 q 56 584 29 531 q 130 674 83 638 q 239 730 176 711 q 374 750 301 749 l 374 751 q 443 829 399 797 q 540 874 479 857 q 688 875 600 890 l 688 781 q 572 817 628 808 q 476 813 525 824 q 394 750 426 801 q 529 730 467 749 q 638 674 592 711 q 712 584 685 638 q 739 461 739 531 q 713 338 739 392 q 641 249 686 285 q 535 193 596 213 q 403 172 474 174 l 403 171 l 385 171 l 383 171 q 312 169 346 171 q 251 161 278 168 q 210 138 225 154 q 194 93 194 122 q 220 48 194 61 q 288 31 246 35 q 383 31 329 28 q 492 35 436 33 q 602 33 549 38 q 697 10 656 28 q 765 -42 739 -7 q 790 -139 790 -78 m 218 461 q 231 338 218 389 q 267 253 244 286 q 320 204 290 219 q 385 189 350 189 q 449 204 419 189 q 501 253 479 219 q 537 338 524 286 q 550 461 550 389 q 537 583 550 532 q 501 668 524 635 q 449 717 479 701 q 385 733 419 733 q 320 717 350 733 q 267 668 290 701 q 231 583 244 635 q 218 461 218 532 m 128 -97 q 69 -186 72 -144 q 97 -260 65 -228 q 190 -316 129 -293 q 321 -351 250 -339 q 466 -361 392 -362 q 601 -344 540 -360 q 699 -295 661 -328 q 738 -211 738 -262 q 705 -151 738 -169 q 620 -128 672 -133 q 501 -124 568 -122 q 367 -127 435 -126 q 237 -123 300 -128 q 128 -97 174 -118 z "},"h":{"ha":939,"x_min":14,"x_max":925,"o":"m 543 8 q 601 32 578 8 q 625 89 625 56 l 625 454 q 602 597 625 540 q 544 680 579 653 q 469 706 510 707 q 394 674 429 704 q 337 587 360 644 q 314 444 314 529 l 314 89 q 338 32 314 56 q 394 8 361 8 l 428 8 l 428 0 l 14 0 l 14 8 l 47 8 q 105 32 81 8 q 129 89 129 56 l 129 892 q 105 949 129 925 q 47 974 81 974 l 14 974 l 14 982 l 314 1047 l 314 571 q 369 678 326 635 q 466 741 411 722 q 581 754 521 760 q 692 714 642 749 q 776 615 743 679 q 810 454 810 551 l 810 89 q 834 32 810 56 q 892 8 858 8 l 925 8 l 925 0 l 511 0 l 511 8 l 543 8 l 543 8 z "},"i":{"ha":442,"x_min":14,"x_max":428,"o":"m 428 8 l 428 0 l 14 0 l 14 8 l 47 8 q 104 32 81 8 q 128 89 128 56 l 128 594 q 104 653 128 629 q 47 676 81 676 l 14 676 l 14 685 l 314 751 l 314 89 q 338 32 314 56 q 394 8 361 8 l 428 8 m 204 825 q 122 858 156 825 q 89 940 89 892 q 122 1022 89 989 q 204 1056 156 1056 q 287 1022 253 1056 q 321 940 321 989 q 287 858 321 892 q 204 825 253 825 z "},"j":{"ha":371,"x_min":-42,"x_max":329,"o":"m 7 685 l 318 751 l 318 0 q 286 -194 318 -115 q 203 -321 254 -272 q 87 -390 151 -369 q -42 -411 22 -411 l -42 -400 q 35 -382 4 -400 q 85 -318 65 -364 q 113 -195 104 -272 q 121 0 121 -118 l 121 594 q 97 653 121 629 q 39 676 74 676 l 7 676 l 7 685 m 214 825 q 132 858 165 825 q 99 940 99 892 q 132 1022 99 989 q 214 1056 165 1056 q 296 1022 263 1056 q 329 940 329 989 q 296 858 329 892 q 214 825 263 825 z "},"k":{"ha":975,"x_min":14,"x_max":961,"o":"m 511 544 q 553 594 529 565 q 587 651 578 624 q 581 697 596 678 q 507 715 567 715 l 507 724 l 826 724 l 826 715 l 797 715 q 685 693 738 715 q 596 628 632 671 l 518 538 l 799 89 q 858 31 825 53 q 935 8 890 8 l 961 8 l 961 0 l 532 0 l 532 8 l 564 8 q 606 32 597 8 q 594 89 615 56 l 403 396 l 314 286 l 314 89 q 338 32 314 56 q 394 8 361 8 l 428 8 l 428 0 l 14 0 l 14 8 l 47 8 q 104 32 81 8 q 128 89 128 56 l 128 892 q 104 949 128 925 q 47 974 81 974 l 14 974 l 14 982 l 314 1047 l 314 303 l 511 544 l 511 544 z "},"l":{"ha":442,"x_min":14,"x_max":428,"o":"m 428 0 l 14 0 l 14 8 l 47 8 q 104 32 81 8 q 128 89 128 56 l 128 892 q 104 949 128 925 q 47 974 81 974 l 14 974 l 14 982 l 314 1047 l 314 89 q 338 32 314 56 q 394 8 361 8 l 428 8 l 428 0 z "},"m":{"ha":1464,"x_min":14,"x_max":1450,"o":"m 47 8 q 104 32 81 8 q 128 89 128 56 l 128 594 q 104 653 128 629 q 47 676 81 676 l 14 676 l 14 685 l 314 751 l 314 569 q 372 669 332 628 q 462 733 411 711 q 568 753 513 754 q 674 729 624 753 q 762 656 724 706 q 817 529 800 606 q 865 653 824 601 q 963 730 906 704 q 1087 754 1021 756 q 1208 720 1153 753 q 1299 622 1263 688 q 1336 454 1336 556 l 1336 89 q 1360 32 1336 56 q 1417 8 1383 8 l 1450 8 l 1450 0 l 1036 0 l 1036 8 l 1069 8 q 1126 32 1103 8 q 1150 89 1150 56 l 1150 454 q 1126 597 1150 540 q 1067 682 1103 654 q 988 709 1031 710 q 910 678 946 708 q 849 590 874 649 q 824 446 825 532 l 824 89 q 848 32 824 56 q 906 8 872 8 l 939 8 l 939 0 l 525 0 l 525 8 l 557 8 q 615 32 592 8 q 639 89 639 56 l 639 454 q 615 597 639 540 q 554 683 590 654 q 476 710 518 711 q 399 678 435 708 q 338 588 363 647 q 314 442 314 529 l 314 89 q 338 32 314 56 q 394 8 361 8 l 428 8 l 428 0 l 14 0 l 14 8 l 47 8 l 47 8 z "},"n":{"ha":939,"x_min":14,"x_max":925,"o":"m 47 8 q 105 32 81 8 q 129 89 129 56 l 129 594 q 105 653 129 629 q 47 676 81 676 l 14 676 l 14 685 l 314 751 l 314 569 q 368 678 326 635 q 465 742 410 722 q 581 755 521 761 q 692 714 642 749 q 776 615 743 679 q 810 454 810 551 l 810 89 q 834 32 810 56 q 892 8 858 8 l 925 8 l 925 0 l 511 0 l 511 8 l 543 8 q 601 32 578 8 q 625 89 625 56 l 625 454 q 602 595 625 539 q 544 679 579 651 q 469 706 510 707 q 394 676 429 706 q 337 588 360 647 q 314 442 314 529 l 314 89 q 338 32 314 56 q 394 8 361 8 l 428 8 l 428 0 l 14 0 l 14 8 l 47 8 l 47 8 z "},"o":{"ha":786,"x_min":28,"x_max":758,"o":"m 758 368 q 730 212 758 282 q 651 92 701 142 q 535 14 601 42 q 393 -14 468 -14 q 251 14 318 -14 q 135 92 185 42 q 56 212 85 142 q 28 368 28 282 q 56 525 28 454 q 135 646 85 596 q 251 724 185 696 q 393 751 318 751 q 535 724 468 751 q 651 646 601 696 q 730 525 701 596 q 758 368 758 454 m 393 -1 q 451 20 424 -1 q 498 86 478 42 q 530 201 518 131 q 542 368 542 271 q 531 534 542 464 q 499 649 519 604 q 451 716 478 694 q 393 738 424 738 q 335 716 363 738 q 288 649 308 694 q 255 534 267 604 q 243 368 243 464 q 255 201 243 271 q 288 86 267 131 q 335 20 308 42 q 393 -1 363 -1 z "},"p":{"ha":900,"x_min":14,"x_max":872,"o":"m 426 -297 l 14 -297 l 14 -289 l 46 -289 q 103 -265 79 -289 q 128 -207 128 -242 l 128 594 q 103 653 128 629 q 46 676 79 676 l 14 676 l 14 685 l 313 751 l 313 526 q 389 665 338 611 q 502 739 440 718 q 630 749 564 760 q 749 694 696 738 q 838 573 803 650 q 872 386 872 496 q 839 192 872 272 q 753 63 806 111 q 635 -3 700 14 q 508 -4 571 -19 q 393 57 446 11 q 313 181 340 103 l 313 -207 q 336 -265 313 -242 q 394 -289 360 -289 l 426 -289 l 426 -297 m 313 301 q 339 174 313 229 q 404 86 365 118 q 490 51 443 54 q 575 81 536 47 q 640 188 614 114 q 667 386 667 263 q 640 560 667 493 q 575 657 614 626 q 490 683 536 688 q 404 642 443 678 q 339 542 365 607 q 313 386 313 476 l 313 301 z "},"q":{"ha":900,"x_min":28,"x_max":886,"o":"m 588 181 q 507 58 560 104 q 392 -4 454 11 q 265 -3 329 -19 q 147 63 200 14 q 61 192 94 111 q 28 386 28 272 q 63 573 28 496 q 151 694 97 650 q 270 749 204 738 q 398 739 336 760 q 511 665 460 718 q 588 526 563 611 l 588 751 l 886 685 l 886 676 l 854 676 q 796 653 819 676 q 772 594 772 629 l 772 -207 q 796 -265 772 -242 q 854 -289 819 -289 l 886 -289 l 886 -297 l 474 -297 l 474 -289 l 506 -289 q 564 -265 540 -289 q 588 -207 588 -242 l 588 181 m 588 386 q 561 542 588 476 q 495 642 535 607 q 410 683 456 678 q 324 657 364 688 q 258 560 285 626 q 232 386 232 493 q 258 188 232 263 q 324 81 285 114 q 410 51 364 47 q 495 86 456 54 q 561 174 535 118 q 588 301 588 229 l 588 386 z "},"r":{"ha":669,"x_min":14,"x_max":642,"o":"m 47 8 q 104 32 81 8 q 128 89 128 56 l 128 594 q 104 653 128 629 q 47 676 81 676 l 14 676 l 14 685 l 314 751 l 314 574 q 439 738 351 704 q 642 724 526 771 l 606 556 q 512 636 563 610 q 417 652 461 663 q 344 592 374 642 q 314 442 314 542 l 314 89 q 338 32 314 56 q 394 8 361 8 l 428 8 l 428 0 l 14 0 l 14 8 l 47 8 l 47 8 z "},"s":{"ha":636,"x_min":28,"x_max":608,"o":"m 33 574 q 62 666 33 631 q 131 722 90 701 q 218 749 172 742 q 300 756 264 756 q 398 738 356 756 q 469 709 440 721 q 512 701 497 697 q 526 746 526 704 l 540 746 l 565 511 l 553 511 q 515 622 544 576 q 446 692 485 667 q 363 726 407 718 q 283 724 319 733 q 224 690 247 714 q 200 626 200 665 q 231 547 200 578 q 306 493 261 517 q 404 449 351 469 q 502 399 457 428 q 578 326 547 369 q 608 215 608 283 q 591 127 608 164 q 546 65 574 90 q 483 24 518 40 q 413 0 447 8 q 347 -11 378 -8 q 294 -14 315 -14 q 174 3 219 -14 q 104 31 128 19 q 73 40 81 43 q 65 -4 65 36 l 51 -4 l 28 231 l 39 231 q 79 113 47 161 q 154 40 111 65 q 244 9 197 14 q 332 19 292 4 q 399 68 372 33 q 425 156 425 103 q 396 241 425 208 q 324 297 367 274 q 229 342 281 321 q 135 392 178 363 q 63 463 92 421 q 33 574 33 506 z "},"t":{"ha":478,"x_min":3,"x_max":464,"o":"m 306 982 q 288 872 306 918 q 246 795 271 825 q 193 751 221 765 q 144 736 165 736 l 436 736 l 436 724 l 286 724 l 286 156 q 333 40 286 71 q 458 50 379 8 l 464 40 q 351 -8 414 4 q 232 -4 288 -21 q 139 64 176 13 q 101 207 101 115 l 101 724 l 3 724 l 3 736 l 63 736 q 97 750 85 736 q 115 793 108 764 q 122 869 121 822 q 124 982 124 915 l 306 982 l 306 982 z "},"u":{"ha":942,"x_min":14,"x_max":928,"o":"m 313 751 l 313 300 q 335 160 313 215 q 393 79 358 106 q 468 54 428 53 q 543 83 508 56 q 601 163 578 110 q 624 292 624 215 l 624 607 q 600 665 624 640 q 543 689 576 689 l 510 689 l 510 697 l 810 763 l 808 490 l 808 154 q 821 100 808 121 q 851 72 833 79 q 889 68 869 64 q 922 88 908 72 l 928 78 q 889 38 913 54 q 839 10 869 22 q 767 -1 808 -1 q 661 49 696 -1 q 626 176 626 100 q 565 68 608 113 q 467 3 522 24 q 351 -12 411 -17 q 242 27 292 -7 q 160 125 192 61 q 128 286 128 189 l 128 606 q 104 663 128 639 q 46 686 81 686 l 14 686 l 14 694 l 313 751 z "},"v":{"ha":983,"x_min":14,"x_max":969,"o":"m 185 619 q 119 690 161 664 q 28 715 76 715 l 14 715 l 14 724 l 444 724 l 444 715 q 392 701 407 715 q 376 665 378 686 q 383 622 375 644 q 400 583 390 599 l 558 200 l 722 603 q 732 642 732 622 q 722 678 732 663 q 696 705 713 694 q 658 715 679 715 l 597 715 l 597 724 l 969 724 l 968 715 l 935 715 q 817 682 872 715 q 732 590 763 649 l 476 -26 l 456 -26 l 185 619 l 185 619 z "},"w":{"ha":1475,"x_min":14,"x_max":1461,"o":"m 965 715 q 912 701 928 715 q 893 665 896 686 q 897 622 890 644 q 913 583 904 599 l 1046 206 l 1222 603 q 1230 642 1232 622 q 1217 678 1228 663 q 1190 705 1207 694 q 1151 715 1172 715 l 1090 715 l 1089 724 l 1461 724 l 1461 715 l 1428 715 q 1313 682 1365 715 q 1233 590 1260 649 l 964 -26 l 940 -26 l 711 592 l 711 590 l 499 -26 l 476 -26 l 176 619 q 115 690 156 664 q 26 715 75 715 l 14 715 l 14 724 l 443 724 l 443 715 q 390 701 406 715 q 371 665 374 686 q 375 622 368 644 q 390 583 382 599 l 564 207 l 700 603 q 701 607 701 606 q 703 611 701 608 l 699 619 q 638 690 678 664 q 549 715 597 715 l 536 715 l 536 724 l 965 724 l 965 715 l 965 715 z "},"x":{"ha":922,"x_min":14,"x_max":908,"o":"m 400 715 q 333 694 335 715 q 363 631 332 674 l 481 467 l 601 635 q 617 698 635 681 q 526 715 599 715 l 526 724 l 807 724 l 807 715 l 749 715 q 677 697 711 715 q 619 643 643 678 l 488 458 l 758 71 q 810 24 781 40 q 872 7 840 7 l 907 7 l 908 -1 l 522 -1 l 522 7 q 580 32 576 7 q 535 129 583 57 l 393 328 l 214 75 q 203 55 208 67 q 203 33 199 43 q 229 15 208 22 q 294 7 250 7 l 294 -1 l 14 -1 l 14 7 l 72 7 q 144 26 110 7 q 201 81 178 46 l 386 336 l 168 646 q 112 697 144 678 q 43 715 79 715 l 14 715 l 14 724 l 400 724 l 400 715 l 400 715 z "},"y":{"ha":993,"x_min":14,"x_max":979,"o":"m 946 715 q 830 682 883 715 q 749 590 776 649 l 588 257 l 264 -417 l 135 -342 q 233 -265 181 -317 q 338 -148 278 -222 q 464 44 397 -74 l 185 619 q 119 690 161 664 q 28 715 76 715 l 15 715 l 14 724 l 444 724 l 444 715 q 392 701 407 715 q 376 665 378 686 q 383 622 375 644 q 400 583 390 599 l 560 233 q 567 250 560 233 q 588 292 575 267 q 617 351 601 318 q 650 419 633 385 l 739 603 q 747 642 749 622 q 735 678 744 663 q 708 705 725 694 q 669 715 690 715 l 608 715 l 607 724 l 979 724 l 979 715 l 946 715 l 946 715 z "},"z":{"ha":694,"x_min":28,"x_max":667,"o":"m 646 -1 l 28 -1 l 28 10 l 443 715 l 304 715 q 225 702 263 715 q 157 665 188 689 q 103 608 126 642 q 71 535 81 575 l 67 515 l 58 515 l 79 724 l 642 724 l 642 715 l 225 8 l 421 8 q 500 22 463 8 q 568 58 538 35 q 621 115 599 82 q 654 188 643 147 l 660 207 l 667 207 l 646 -1 z "},"\u0000":{"ha":0,"x_min":0,"x_max":0,"o":""}}}
